<?xml version="1.0" standalone="no"?>
<!DOCTYPE svg PUBLIC "-//W3C//DTD SVG 20010904//EN"
 "http://www.w3.org/TR/2001/REC-SVG-20010904/DTD/svg10.dtd">
<svg version="1.0" xmlns="http://www.w3.org/2000/svg"
 width="1500.000000pt" height="1500.000000pt" viewBox="0 0 1500.000000 1500.000000"
 preserveAspectRatio="xMidYMid meet">
<metadata>
Created by potrace 1.14, written by Peter Selinger 2001-2017
</metadata>
<g transform="translate(0.000000,1500.000000) scale(0.100000,-0.100000)"
fill="#000000" stroke="none">
<path d="M0 7500 l0 -7500 1926 0 1927 0 -6 93 c-15 206 -19 806 -8 997 25
424 88 980 142 1250 31 155 115 424 160 515 50 100 120 175 164 175 45 0 120
-39 220 -115 183 -138 286 -198 537 -311 79 -35 151 -73 161 -82 10 -10 29
-57 41 -104 l24 -86 -18 -98 c-9 -55 -25 -144 -34 -199 -31 -181 -96 -425
-197 -735 -106 -330 -149 -472 -209 -706 -22 -83 -60 -206 -85 -275 -54 -146
-106 -289 -112 -306 -4 -10 389 -13 1944 -13 l1950 0 6 152 c4 83 7 217 7 297
0 80 3 243 7 362 l6 216 159 -1 158 -1 -7 -512 -6 -513 721 0 c397 0 722 3
722 8 0 4 5 139 10 300 5 161 14 344 20 405 17 178 131 908 171 1097 87 409
219 735 325 805 34 22 143 51 224 60 253 26 535 100 761 200 44 19 97 38 119
41 34 6 43 3 70 -24 34 -35 33 -27 20 -198 -37 -450 -80 -638 -271 -1182 -133
-378 -215 -619 -255 -750 -19 -64 -57 -178 -85 -252 -50 -136 -60 -160 -122
-305 -30 -68 -57 -162 -57 -195 0 -6 700 -10 1885 -10 l1885 0 0 7500 0 7500
-7500 0 -7500 0 0 -7500z m7935 5364 c198 -18 395 -53 478 -84 52 -20 58 -25
55 -48 -4 -33 -55 -60 -203 -107 -446 -141 -1351 -197 -2260 -140 -267 17
-401 39 -470 78 -66 37 -58 70 24 112 146 73 466 136 951 186 290 30 1107 32
1425 3z m609 -241 c7 -44 8 -133 1 -133 -2 0 -16 5 -30 12 -17 7 -29 8 -35 2
-7 -7 5 -21 35 -43 32 -23 48 -43 56 -71 13 -43 18 -47 37 -28 9 9 12 9 12 -2
0 -8 -21 -29 -48 -47 -213 -142 -655 -251 -1257 -310 -254 -25 -948 -25 -1185
0 -273 28 -498 74 -635 128 l-60 24 -3 46 c-2 26 4 77 13 113 8 37 15 102 15
144 0 42 3 87 6 99 l6 22 32 -24 c91 -70 322 -106 917 -145 196 -13 699 -13
849 0 63 6 165 13 225 16 211 10 515 54 695 101 127 33 241 73 263 92 17 14
63 38 78 40 4 1 9 -16 13 -36z m69 -320 c-10 -30 -25 -44 -40 -39 -8 3 -11 1
-8 -4 8 -13 -71 -64 -86 -54 -7 4 -10 3 -5 -4 9 -14 -180 -86 -321 -122 -143
-36 -477 -93 -514 -88 -15 3 -26 1 -24 -2 5 -8 -228 -33 -266 -29 -13 1 -31
-1 -39 -4 -52 -23 -1142 -23 -1158 -1 -4 5 -34 10 -67 11 -78 3 -235 25 -230
33 2 3 -15 4 -37 2 -24 -3 -38 0 -35 5 3 5 -7 7 -25 5 -17 -3 -28 -1 -25 4 3
5 -16 10 -41 11 -69 3 -211 53 -229 80 l-15 23 73 -26 c95 -33 241 -71 305
-79 27 -4 65 -10 84 -15 19 -5 72 -12 118 -16 45 -3 82 -9 82 -13 0 -3 24 -6
53 -6 28 0 102 -4 162 -8 138 -10 716 -11 744 -2 13 4 29 1 38 -7 9 -7 14 -8
10 -2 -5 8 27 13 106 18 61 4 120 10 131 13 14 4 16 2 10 -8 -6 -11 -5 -12 7
-2 8 6 43 14 79 17 283 27 636 98 855 171 93 31 277 119 295 140 16 20 21 19
13 -2z m31 -144 c5 -19 26 -89 47 -157 21 -67 50 -178 64 -245 14 -67 28 -132
32 -144 l5 -23 -140 0 c-78 0 -152 -4 -166 -10 -28 -10 -74 -96 -88 -165 -27
-130 -30 -170 -24 -315 11 -310 54 -484 162 -657 52 -84 98 -127 128 -120 34
7 239 65 259 72 16 7 17 -6 17 -177 0 -193 -18 -364 -47 -453 -35 -109 -50
-129 -161 -217 -171 -136 -277 -202 -504 -312 -623 -302 -864 -374 -1328 -395
-350 -15 -533 -11 -690 15 -24 5 -32 3 -25 -4 35 -36 517 -63 800 -44 302 21
639 108 1001 260 131 56 436 209 499 253 22 15 64 41 92 57 29 17 65 39 80 49
l28 18 -33 -42 c-97 -124 -420 -364 -628 -467 -129 -63 -356 -151 -465 -180
-298 -77 -852 -123 -1059 -88 -36 6 -130 18 -210 27 -128 14 -166 23 -325 76
-295 100 -516 234 -628 381 -59 78 -76 122 -104 263 -15 75 -17 138 -16 370 2
338 38 1049 62 1235 6 41 19 152 31 245 33 266 54 365 130 610 42 134 58 167
78 161 79 -24 361 -88 462 -105 69 -11 233 -30 365 -42 210 -19 285 -21 595
-16 355 6 490 15 795 57 370 52 706 146 833 235 26 18 51 32 57 31 5 -2 14
-18 19 -37z m51 -642 c-31 -48 -47 -123 -52 -253 -13 -303 75 -656 196 -786
l41 -45 -101 -38 c-100 -38 -102 -38 -134 -21 -17 10 -50 45 -72 79 -84 129
-111 190 -139 312 -26 112 -28 135 -28 335 l0 215 37 99 c21 55 42 105 48 113
8 9 41 13 115 13 l104 0 -15 -23z m124 -7 c53 -28 126 -199 168 -390 48 -221
41 -525 -13 -608 -63 -95 -192 140 -244 443 -38 224 -23 484 32 542 24 26 31
27 57 13z m911 -1270 c133 -16 226 -37 260 -60 13 -9 13 -11 0 -20 -53 -35
-228 -53 -460 -47 -199 5 -326 22 -396 52 l-39 17 43 20 c91 41 397 61 592 38z
m-530 -149 c159 -35 267 -44 470 -37 102 3 197 8 211 12 24 5 28 0 78 -103 29
-59 93 -184 143 -278 50 -93 120 -224 155 -289 35 -65 62 -120 61 -121 -9 -8
-176 -36 -304 -51 -184 -22 -614 -25 -824 -6 -264 23 -328 32 -468 62 l-52 12
37 37 c151 147 277 424 271 598 -2 70 -1 72 45 142 l47 70 42 -19 c24 -10 64
-23 88 -29z m-390 -880 c300 -42 321 -43 825 -39 312 3 524 10 583 18 51 7 94
11 95 9 1 -2 0 -200 -3 -440 l-5 -436 -95 45 c-147 68 -334 146 -453 187 -89
32 -110 43 -127 69 -45 72 -139 122 -317 167 -123 32 -199 34 -268 8 -25 -9
-57 -5 -194 25 -90 19 -169 40 -177 47 -7 6 -25 31 -39 56 -21 39 -25 58 -25
129 0 46 5 106 11 134 10 46 13 51 33 46 11 -4 82 -15 156 -25z m-2930 -476
c74 -30 147 -57 161 -60 22 -5 27 -14 32 -48 3 -23 3 -61 0 -84 -5 -40 -8 -43
-37 -43 -74 0 -298 -80 -343 -122 l-23 -21 0 231 0 232 38 -16 c20 -8 98 -40
172 -69z m127 -298 c-3 -8 -43 -70 -90 -139 -116 -171 -137 -216 -300 -633 -9
-22 -16 -32 -16 -22 -1 21 -17 22 -25 1 -10 -26 -7 -36 9 -31 12 5 12 1 4 -21
-87 -224 -138 -373 -179 -523 -27 -100 -51 -191 -51 -203 -1 -17 -2 -18 -6 -3
-2 9 -8 17 -13 17 -12 0 -20 -44 -9 -51 7 -4 3 -33 -10 -85 -10 -43 -20 -73
-20 -66 -1 6 -6 12 -12 12 -8 0 -9 -15 -5 -45 6 -38 5 -44 -8 -39 -12 5 -16
-1 -16 -25 0 -17 4 -31 9 -31 4 0 1 -34 -7 -75 -9 -41 -19 -70 -23 -64 -4 7
-12 8 -18 5 -14 -9 -15 -66 -1 -66 6 0 10 5 10 12 0 6 2 9 5 7 2 -3 0 -18 -4
-35 -5 -16 -10 -23 -10 -16 -2 26 -20 10 -27 -22 -9 -50 1 -68 15 -26 13 41
14 51 -23 -175 -14 -82 -29 -201 -35 -264 -6 -63 -13 -116 -15 -118 -11 -11
-16 80 -6 117 13 47 7 63 -14 35 -12 -17 -15 -8 -21 78 -12 152 37 672 80 862
7 33 23 119 35 190 12 72 26 136 32 142 6 7 11 25 12 40 2 16 8 38 14 50 7 12
9 29 6 38 -4 10 2 24 15 36 11 11 21 25 21 31 0 7 -7 3 -16 -8 -10 -13 -14
-14 -11 -4 3 9 21 73 41 143 54 186 125 377 142 377 8 0 14 5 14 11 0 5 -5 7
-10 4 -6 -4 -5 5 2 20 7 16 14 21 18 14 5 -7 9 -5 13 5 4 9 2 16 -3 16 -5 0
-7 7 -4 15 4 8 10 12 15 9 9 -5 13 8 10 39 -1 9 4 17 12 17 16 0 31 27 18 32
-5 2 18 58 50 126 32 68 63 121 68 118 5 -4 13 -1 17 5 4 8 3 9 -4 5 -18 -11
-15 17 4 40 13 16 15 16 10 2 -3 -10 -1 -18 5 -18 7 0 9 10 5 24 -8 31 14 49
99 82 110 41 212 57 202 31z m5052 -797 c28 -5 90 -26 136 -46 96 -41 132 -77
208 -205 169 -286 265 -592 317 -1008 11 -91 20 -176 20 -190 0 -40 -183 -225
-290 -294 -83 -54 -233 -124 -410 -193 -158 -60 -385 -108 -570 -119 -110 -6
-165 1 -279 35 -64 19 -67 22 -103 83 -113 190 -207 492 -244 782 -21 174 -30
570 -14 650 11 54 18 66 74 120 63 61 184 146 291 205 33 18 87 47 120 66 69
38 219 90 314 109 79 16 357 19 430 5z m-2269 -237 c6 -37 13 -79 16 -93 2
-14 9 -56 14 -95 5 -38 13 -71 18 -73 6 -2 8 -20 5 -41 -4 -31 -1 -42 18 -60
13 -12 17 -21 10 -21 -15 0 -7 -66 10 -86 5 -6 7 -19 3 -27 -3 -9 0 -33 7 -54
7 -21 13 -55 14 -77 1 -23 8 -43 18 -50 10 -8 14 -20 10 -34 -7 -27 5 -75 16
-68 5 3 11 -3 14 -14 3 -11 0 -20 -5 -20 -15 0 -2 -72 15 -85 19 -14 28 -43
15 -47 -7 -3 -8 -17 -4 -42 5 -28 11 -36 23 -32 13 5 14 0 9 -27 -4 -22 -1
-40 9 -52 8 -11 15 -32 15 -47 0 -15 5 -30 10 -33 6 -3 10 -19 10 -35 0 -16 5
-32 10 -35 6 -3 10 -17 10 -30 0 -13 4 -34 9 -47 5 -13 21 -63 36 -113 14 -49
32 -106 40 -125 7 -19 31 -96 54 -170 23 -74 75 -232 116 -350 41 -118 72
-216 70 -218 -8 -8 -135 338 -259 709 -148 443 -220 710 -292 1079 -46 238
-88 489 -98 590 -5 54 -5 54 9 23 8 -17 19 -62 25 -100z m-3967 -31 c29 -180
170 -532 256 -641 l29 -36 -14 -80 c-17 -96 -51 -385 -66 -551 -8 -84 -8 -166
0 -270 5 -82 9 -150 7 -152 -1 -1 -40 11 -86 28 -105 39 -181 85 -241 147 -53
55 -59 76 -79 281 -33 340 32 917 136 1210 19 53 35 98 35 100 0 1 4 2 9 2 5
0 11 -17 14 -38z m2163 -408 c488 -100 903 -522 1099 -1116 41 -127 85 -316
99 -430 5 -46 5 -47 -45 -92 -225 -202 -749 -399 -1314 -494 -275 -47 -398
-57 -715 -57 -271 0 -318 3 -425 22 -131 24 -239 57 -306 94 l-44 24 -6 95
c-8 118 6 364 27 490 120 713 540 1271 1084 1440 159 50 375 59 546 24z m4785
-1021 c52 -136 133 -505 159 -724 25 -206 41 -483 52 -884 18 -665 7 -710
-204 -845 -157 -102 -275 -142 -568 -195 -135 -24 -151 -25 -234 -14 -84 12
-93 15 -135 53 -71 65 -235 416 -350 748 -144 414 -260 877 -296 1178 -4 30
-18 106 -31 169 -13 63 -23 116 -21 117 1 1 22 -2 47 -6 75 -15 387 -11 536 6
171 20 322 57 479 119 166 65 396 184 480 249 39 30 71 55 73 55 1 1 7 -11 13
-26z m-3461 -119 c210 -54 371 -168 418 -297 131 -350 -336 -840 -1114 -1171
-619 -262 -1323 -372 -1805 -280 -112 21 -268 75 -336 116 -64 38 -179 156
-198 202 -7 17 -15 46 -18 64 -6 30 -5 32 13 22 31 -17 59 -12 87 16 23 23 25
31 20 82 -3 31 -9 69 -13 85 -9 38 17 36 49 -4 l24 -31 17 23 c22 33 21 41
-16 76 -42 39 -69 53 -104 53 -59 0 -81 -60 -49 -137 19 -45 19 -83 1 -83 -28
0 -34 30 -41 205 l-8 180 34 -30 c159 -139 413 -198 854 -197 811 1 1758 273
2082 597 106 106 137 208 92 302 -21 43 -83 103 -106 103 -7 0 -13 1 -13 3 0
1 -9 33 -19 70 l-20 68 37 -7 c20 -3 80 -17 132 -30z m-3503 -170 c54 -37 135
-86 179 -110 79 -43 82 -46 102 -102 11 -31 39 -102 62 -156 23 -54 45 -128
50 -165 19 -137 32 -1000 20 -1320 -7 -167 -9 -350 -5 -406 l7 -102 -47 -8
c-66 -9 -225 3 -320 26 -159 38 -369 170 -440 278 -37 56 -55 163 -62 376 -14
453 96 1179 232 1530 68 173 100 239 115 230 5 -3 53 -35 107 -71z m5397
-1019 c14 -60 39 -150 56 -198 31 -92 37 -159 22 -272 l-7 -50 -32 51 c-18 27
-44 61 -58 74 -33 31 -40 21 -48 -73 -3 -40 -36 -396 -72 -792 -83 -903 -84
-932 -56 -1051 11 -50 21 -94 21 -96 0 -15 -405 -95 -418 -83 -2 2 -1 33 3 69
l7 66 99 82 c71 61 101 92 109 118 8 24 10 136 8 347 l-3 311 -24 26 -24 25
37 158 c56 245 50 230 95 237 47 7 89 39 107 82 36 87 57 221 65 429 4 116 12
230 18 255 5 25 14 119 20 210 6 91 14 197 17 235 l7 70 13 -60 c7 -33 24
-109 38 -170z m-2070 -102 c-19 -84 -102 -312 -148 -408 -102 -214 -220 -379
-379 -531 -334 -320 -748 -434 -1155 -319 -115 33 -290 120 -393 196 -112 82
-268 242 -351 359 -65 93 -154 247 -146 255 2 2 37 -6 78 -19 426 -136 1072
-85 1715 134 254 87 509 202 695 314 41 25 78 45 83 45 4 1 4 -11 1 -26z
m2099 -558 c57 -202 116 -458 161 -698 20 -103 40 -206 45 -229 6 -24 19 -104
31 -178 12 -74 28 -175 36 -225 46 -275 53 -385 29 -442 -8 -20 -22 -63 -31
-97 -21 -80 -22 -82 -47 -48 -82 108 -232 247 -370 341 -42 28 -47 36 -43 59
3 15 12 128 21 252 8 124 24 351 34 505 11 154 30 437 42 629 26 397 20 389
92 131z m-5593 -662 c195 -114 393 -182 533 -183 l57 0 0 -50 c0 -28 4 -92 9
-143 5 -51 12 -132 16 -180 l6 -88 -48 7 c-152 22 -269 68 -473 188 -219 129
-283 166 -347 197 -60 29 -62 32 -69 76 -11 74 11 270 42 376 5 15 21 4 88
-60 52 -50 119 -100 186 -140z m7315 31 c9 -34 15 -102 15 -164 l0 -105 -92
-44 c-51 -24 -131 -60 -178 -81 -47 -21 -121 -55 -165 -75 -139 -65 -241 -94
-454 -130 -113 -19 -210 -35 -217 -35 -17 0 -36 166 -29 251 8 88 33 240 43
256 5 8 21 8 52 3 81 -16 269 -11 395 10 246 42 393 85 520 154 90 48 87 49
110 -40z m-2287 -359 c-3 -3 -9 2 -12 12 -6 14 -5 15 5 6 7 -7 10 -15 7 -18z
m-80 -116 c-3 -33 -4 -33 -8 8 -3 23 -2 39 3 34 5 -5 7 -24 5 -42z m219 -286
c-1 -43 -3 -10 -3 72 0 83 2 118 3 78 2 -40 2 -107 0 -150z m-290 40 c-2 -27
-3 -5 -3 47 0 52 1 74 3 48 2 -27 2 -69 0 -95z m-70 45 c-2 -18 -4 -6 -4 27 0
33 2 48 4 33 2 -15 2 -42 0 -60z m300 -125 c-2 -37 -3 -9 -3 62 0 72 1 102 3
68 2 -34 2 -93 0 -130z m-513 140 c-10 -8 -93 -60 -184 -117 -225 -139 -237
-148 -252 -175 -11 -21 -17 -23 -63 -17 -27 3 -90 6 -140 6 l-90 0 108 70 107
70 21 -21 c18 -18 30 -20 73 -17 54 5 166 62 166 84 0 6 -21 14 -46 17 -74 8
-74 20 2 71 l69 47 124 -2 c109 -2 122 -4 105 -16z m91 -335 c-10 -552 -23
-956 -31 -969 -7 -12 -179 -126 -359 -238 -55 -35 -111 -70 -124 -79 l-24 -17
6 653 c5 577 7 656 21 677 9 14 62 52 119 86 56 33 161 98 232 144 72 45 138
83 148 84 17 1 18 -16 12 -341z m62 255 c-2 -16 -4 -3 -4 27 0 30 2 43 4 28 2
-16 2 -40 0 -55z m-637 30 c0 -10 11 -42 25 -71 30 -65 30 -61 4 -55 -21 6
-31 24 -55 101 -12 40 -12 42 6 42 12 0 20 -7 20 -17z m847 -105 c-2 -18 -4
-6 -4 27 0 33 2 48 4 33 2 -15 2 -42 0 -60z m-140 -230 c-1 -40 -3 -10 -3 67
0 77 1 110 3 73 2 -37 2 -100 0 -140z m220 115 c-2 -16 -4 -5 -4 22 0 28 2 40
4 28 2 -13 2 -35 0 -50z m-150 -105 c-2 -18 -4 -6 -4 27 0 33 2 48 4 33 2 -15
2 -42 0 -60z m-762 38 c7 -2 7 -142 2 -412 -4 -225 -6 -516 -5 -647 l3 -237
-127 0 c-168 0 -163 -5 -154 160 3 69 6 355 6 636 l0 512 133 -5 c72 -2 137
-6 142 -7z m612 -218 c-3 -7 -5 -2 -5 12 0 14 2 19 5 13 2 -7 2 -19 0 -25z
m-3722 -319 c98 -46 282 -109 345 -118 l45 -6 -5 -60 c-3 -33 -5 -147 -5 -252
0 -122 -4 -193 -10 -193 -34 0 -235 54 -311 83 -104 40 -239 106 -271 133 -34
28 -48 145 -33 272 15 132 31 245 37 254 2 5 31 -11 65 -33 33 -23 98 -59 143
-80z m2805 -283 l0 -254 -22 -5 c-13 -2 -59 -14 -103 -25 -270 -69 -433 -95
-748 -122 -133 -11 -292 -25 -353 -30 -60 -6 -130 -10 -155 -10 l-46 0 9 48
c4 26 11 138 15 250 l6 202 126 0 c69 0 182 5 251 10 342 27 533 58 786 129
115 32 215 59 222 60 9 1 12 -56 12 -253z m-2010 136 c327 -53 459 -83 485
-112 13 -15 16 -42 16 -151 0 -74 -6 -176 -12 -228 -12 -92 -12 -93 -45 -107
-55 -23 -145 -28 -296 -15 -141 12 -348 48 -440 77 -52 17 -56 24 -68 119 -7
56 12 353 26 400 14 44 24 47 119 42 49 -3 146 -14 215 -25z m2660 -622 c0
-115 -3 -147 -17 -173 -18 -32 -18 -31 -21 127 -2 153 3 186 29 186 5 0 9 -63
9 -140z m-115 -576 c-9 -23 -27 -51 -40 -64 l-25 -23 0 346 0 346 38 26 37 25
3 -307 c2 -259 0 -315 -13 -349z"/>
<path d="M7410 12729 c-524 -15 -1207 -40 -1255 -47 -27 -4 -50 -13 -52 -19
-11 -33 46 -35 552 -24 586 13 1105 30 1123 36 15 6 16 37 0 53 -7 7 -30 11
-52 10 -23 0 -165 -5 -316 -9z"/>
<path d="M8510 12591 c0 -11 4 -22 9 -25 4 -3 6 6 3 19 -5 30 -12 33 -12 6z"/>
<path d="M8477 12566 c3 -15 10 -29 15 -32 6 -4 7 2 3 17 -10 35 -23 45 -18
15z"/>
<path d="M8450 12560 c0 -8 5 -22 10 -30 9 -13 10 -13 10 0 0 8 -5 22 -10 30
-9 13 -10 13 -10 0z"/>
<path d="M8423 12546 c4 -10 7 -24 7 -32 0 -8 4 -14 9 -14 11 0 1 49 -12 57
-7 4 -8 0 -4 -11z"/>
<path d="M8402 12519 c6 -16 12 -28 14 -26 5 5 -13 57 -20 57 -3 0 0 -14 6
-31z"/>
<path d="M8373 12505 c6 -19 12 -33 14 -32 6 7 -9 67 -17 67 -5 0 -3 -16 3
-35z"/>
<path d="M8342 12499 c6 -16 12 -28 14 -26 5 5 -13 57 -20 57 -3 0 0 -14 6
-31z"/>
<path d="M8305 12500 c12 -40 26 -59 19 -25 -4 17 -11 35 -16 40 -7 7 -8 1 -3
-15z"/>
<path d="M8236 12465 c6 -40 11 -52 18 -44 2 2 -3 22 -10 44 l-13 40 5 -40z"/>
<path d="M8273 12465 c6 -19 12 -33 14 -32 6 7 -9 67 -17 67 -5 0 -3 -16 3
-35z"/>
<path d="M8408 12468 c-33 -12 -34 -17 -9 -66 10 -20 24 -57 31 -80 14 -53 36
-51 33 3 l-3 39 29 -28 c23 -22 30 -24 39 -13 9 11 6 19 -13 37 -18 17 -23 29
-18 50 4 20 -1 34 -16 49 -23 23 -33 24 -73 9z m50 -45 c-4 -22 -22 -20 -26 1
-2 10 3 16 13 16 10 0 15 -7 13 -17z"/>
<path d="M8190 12460 c0 -8 5 -22 10 -30 9 -13 10 -13 10 0 0 8 -5 22 -10 30
-9 13 -10 13 -10 0z"/>
<path d="M8151 12430 c15 -45 24 -54 15 -15 -4 17 -12 34 -17 40 -5 5 -4 -6 2
-25z"/>
<path d="M8105 12425 c4 -17 11 -34 16 -39 5 -5 4 5 -1 24 -12 42 -24 55 -15
15z"/>
<path d="M8062 12399 c6 -16 12 -29 13 -27 6 6 -8 58 -16 58 -4 0 -3 -14 3
-31z"/>
<path d="M8292 12416 c-23 -7 -31 -15 -26 -26 3 -8 13 -44 21 -80 22 -96 21
-94 36 -81 8 6 12 23 9 41 -5 34 7 39 26 10 14 -22 52 -27 52 -7 0 8 -9 22
-20 32 -16 14 -19 26 -14 56 10 64 -13 79 -84 55z m46 -37 c-2 -6 -8 -10 -13
-10 -5 0 -11 4 -13 10 -2 6 4 11 13 11 9 0 15 -5 13 -11z"/>
<path d="M7961 12405 c0 -11 4 -27 9 -35 9 -13 10 -13 9 0 0 8 -4 24 -9 35
l-9 20 0 -20z"/>
<path d="M8011 12410 c0 -8 4 -22 9 -30 12 -18 12 -2 0 25 -6 13 -9 15 -9 5z"/>
<path d="M7921 12400 c0 -8 4 -24 9 -35 5 -13 9 -14 9 -5 0 8 -4 24 -9 35 -5
13 -9 14 -9 5z"/>
<path d="M7876 12375 c8 -37 14 -45 14 -19 0 10 -5 26 -10 34 -8 11 -9 7 -4
-15z"/>
<path d="M8183 12382 c-24 -9 -43 -23 -43 -31 0 -39 36 -161 48 -161 32 0 82
30 82 49 0 18 -3 19 -25 11 -33 -13 -46 9 -17 28 31 20 29 46 -2 38 -35 -9
-39 15 -7 41 37 31 17 45 -36 25z"/>
<path d="M5519 12387 c-6 -15 -36 -204 -32 -209 12 -21 32 -4 38 32 11 65 35
60 50 -10 9 -43 22 -60 46 -60 17 0 17 2 0 53 l-18 52 23 18 c47 35 19 89 -58
112 -27 8 -48 13 -49 12z m55 -53 c24 -9 20 -44 -4 -44 -15 0 -20 7 -20 25 0
27 1 28 24 19z"/>
<path d="M7676 12355 c8 -50 14 -58 14 -19 0 16 -5 36 -11 44 -7 11 -8 4 -3
-25z"/>
<path d="M7727 12348 c8 -57 13 -61 13 -10 0 22 -4 43 -9 46 -5 4 -7 -12 -4
-36z"/>
<path d="M7778 12360 c2 -16 6 -30 8 -30 2 0 4 14 4 30 0 17 -4 30 -8 30 -5 0
-7 -13 -4 -30z"/>
<path d="M7821 12375 c0 -11 4 -27 9 -35 9 -13 10 -13 9 0 0 8 -4 24 -9 35
l-9 20 0 -20z"/>
<path d="M7621 12350 c0 -14 4 -32 9 -40 8 -12 10 -12 9 5 0 11 -4 29 -9 40
-8 18 -9 18 -9 -5z"/>
<path d="M7461 12350 c0 -8 4 -22 9 -30 12 -18 12 -2 0 25 -6 13 -9 15 -9 5z"/>
<path d="M7510 12343 c0 -12 5 -25 10 -28 13 -8 13 15 0 35 -8 12 -10 11 -10
-7z"/>
<path d="M7572 12330 c0 -19 2 -27 5 -17 2 9 2 25 0 35 -3 9 -5 1 -5 -18z"/>
<path d="M8026 12343 c-26 -4 -28 -7 -21 -36 4 -18 13 -61 20 -97 11 -63 13
-65 40 -63 30 2 71 35 81 65 3 10 -1 30 -10 43 -9 13 -16 35 -16 48 0 43 -19
51 -94 40z m52 -45 c-6 -18 -28 -21 -28 -4 0 9 7 16 16 16 9 0 14 -5 12 -12z
m22 -82 c0 -8 -7 -16 -15 -20 -10 -4 -15 1 -15 14 0 11 7 20 15 20 8 0 15 -6
15 -14z"/>
<path d="M5742 12328 c-17 -22 -92 -172 -92 -185 0 -22 36 -14 47 10 9 19 17
23 47 19 31 -4 36 -8 42 -38 4 -24 12 -34 25 -34 25 0 25 29 -2 133 -20 79
-33 107 -49 107 -4 0 -12 -6 -18 -12z m28 -100 c0 -11 -6 -15 -20 -11 -23 6
-24 7 -8 33 13 21 28 10 28 -22z"/>
<path d="M6693 12300 c0 -25 2 -35 4 -22 2 12 2 32 0 45 -2 12 -4 2 -4 -23z"/>
<path d="M6843 12295 c0 -27 2 -38 4 -22 2 15 2 37 0 50 -2 12 -4 0 -4 -28z"/>
<path d="M6912 12315 c0 -16 2 -22 5 -12 2 9 2 23 0 30 -3 6 -5 -1 -5 -18z"/>
<path d="M7020 12311 c0 -17 5 -33 10 -36 6 -4 10 8 10 29 0 20 -4 36 -10 36
-5 0 -10 -13 -10 -29z"/>
<path d="M7070 12331 c0 -6 5 -13 10 -16 6 -3 10 1 10 9 0 9 -4 16 -10 16 -5
0 -10 -4 -10 -9z"/>
<path d="M7191 12324 c0 -11 3 -14 6 -6 3 7 2 16 -1 19 -3 4 -6 -2 -5 -13z"/>
<path d="M7413 12305 c0 -22 2 -30 4 -17 2 12 2 30 0 40 -3 9 -5 -1 -4 -23z"/>
<path d="M6630 12323 c0 -4 5 -15 10 -23 8 -13 10 -13 10 2 0 9 -4 20 -10 23
-5 3 -10 3 -10 -2z"/>
<path d="M7120 12318 c0 -9 5 -20 10 -23 13 -8 13 5 0 25 -8 13 -10 13 -10 -2z"/>
<path d="M6792 12300 c0 -14 2 -19 5 -12 2 6 2 18 0 25 -3 6 -5 1 -5 -13z"/>
<path d="M7252 12295 c0 -16 2 -22 5 -12 2 9 2 23 0 30 -3 6 -5 -1 -5 -18z"/>
<path d="M7871 12306 c-7 -9 -8 -22 -3 -37 5 -13 13 -54 16 -91 7 -58 10 -68
27 -68 15 0 19 7 19 33 0 25 6 36 29 48 37 22 49 70 27 104 -13 20 -25 25 -60
25 -25 0 -48 -6 -55 -14z m79 -45 c0 -25 -20 -38 -31 -20 -15 23 -10 39 11 39
13 0 20 -7 20 -19z"/>
<path d="M5909 12298 c-50 -19 -52 -61 -4 -108 19 -19 35 -40 35 -47 0 -16
-24 -17 -52 -2 -19 10 -37 0 -38 -22 0 -9 69 -39 90 -39 25 0 60 38 60 66 0
21 -51 74 -71 74 -5 0 -9 9 -9 20 0 22 20 26 50 10 14 -7 20 -6 24 6 13 34
-38 59 -85 42z"/>
<path d="M6581 12294 c0 -11 3 -14 6 -6 3 7 2 16 -1 19 -3 4 -6 -2 -5 -13z"/>
<path d="M6742 12285 c0 -16 2 -22 5 -12 2 9 2 23 0 30 -3 6 -5 -1 -5 -18z"/>
<path d="M6971 12294 c0 -11 3 -14 6 -6 3 7 2 16 -1 19 -3 4 -6 -2 -5 -13z"/>
<path d="M7081 12284 c0 -11 3 -14 6 -6 3 7 2 16 -1 19 -3 4 -6 -2 -5 -13z"/>
<path d="M7192 12280 c0 -14 2 -19 5 -12 2 6 2 18 0 25 -3 6 -5 1 -5 -13z"/>
<path d="M7767 12289 c-50 -30 -38 -94 23 -119 39 -16 33 -36 -9 -32 -21 1
-34 -3 -38 -14 -13 -33 55 -46 95 -18 34 24 27 74 -13 93 -16 8 -33 19 -37 25
-10 14 11 36 34 36 13 0 18 6 16 18 -4 20 -45 27 -71 11z"/>
<path d="M6029 12234 c0 -27 -4 -74 -8 -104 -6 -37 -5 -57 3 -62 19 -13 31 -2
36 33 4 30 9 34 43 40 109 17 92 126 -21 137 l-52 5 -1 -49z m86 -29 c0 -13
-8 -21 -22 -23 -19 -3 -23 1 -23 23 0 22 4 26 23 23 14 -2 22 -10 22 -23z"/>
<path d="M7622 12258 c-7 -7 -12 -24 -12 -38 0 -15 -9 -53 -20 -85 -24 -70
-24 -75 -5 -75 9 0 20 11 25 24 12 32 65 41 83 13 7 -11 18 -17 25 -13 15 9
-7 80 -42 141 -29 48 -35 52 -54 33z m42 -74 c10 -25 7 -34 -9 -34 -9 0 -15 9
-15 25 0 28 15 34 24 9z"/>
<path d="M6196 12169 c-4 -51 -8 -97 -9 -102 -3 -15 75 -31 107 -23 14 3 33
17 42 31 14 21 14 28 2 53 -8 15 -13 44 -10 64 4 32 1 38 -26 52 -17 9 -46 16
-65 16 l-34 0 -7 -91z m89 26 c0 -5 -10 -11 -22 -13 -16 -2 -23 2 -23 13 0 11
7 15 23 13 12 -2 22 -7 22 -13z m-6 -74 c19 -12 6 -41 -19 -41 -15 0 -20 7
-20 25 0 26 14 31 39 16z"/>
<path d="M7418 12244 c-5 -4 -8 -49 -8 -101 0 -86 1 -93 20 -93 14 0 20 7 20
23 0 47 16 51 48 11 38 -46 60 -37 35 14 -14 30 -14 34 1 51 19 21 21 51 3 75
-14 20 -105 35 -119 20z m66 -40 c22 -9 20 -41 -4 -47 -20 -5 -37 23 -25 43 7
12 8 12 29 4z"/>
<path d="M6386 12223 c-2 -10 -8 -57 -11 -104 l-7 -86 62 -6 c69 -8 80 -4 80
23 0 15 -9 21 -40 26 -48 8 -56 34 -10 34 25 0 30 4 30 25 0 21 -5 25 -30 25
-49 0 -38 28 13 32 34 2 42 7 42 23 0 18 -8 20 -62 23 -52 2 -62 0 -67 -15z"/>
<path d="M6546 12134 c-8 -99 -2 -122 28 -111 10 4 16 19 16 42 0 47 18 44 37
-5 12 -31 21 -40 40 -40 26 0 30 17 8 46 -19 25 -19 48 0 64 44 36 -7 100 -80
100 l-42 0 -7 -96z m81 30 c3 -9 0 -20 -8 -25 -23 -14 -29 -11 -29 16 0 28 27
35 37 9z"/>
<path d="M6720 12120 c0 -93 1 -100 20 -100 16 0 20 7 20 35 0 19 4 35 9 35 5
0 18 -16 30 -35 12 -20 28 -35 39 -35 29 0 32 10 12 42 -17 28 -17 32 -2 58
31 53 -19 100 -105 100 -22 0 -23 -3 -23 -100z m78 27 c2 -10 -3 -17 -12 -17
-10 0 -16 9 -16 21 0 24 23 21 28 -4z"/>
<path d="M6880 12198 c0 -7 11 -30 25 -50 18 -26 25 -50 25 -83 0 -42 2 -46
22 -43 16 2 24 12 30 38 4 20 18 56 32 80 31 53 32 70 8 70 -11 0 -25 -14 -36
-37 -19 -40 -17 -40 -51 10 -14 21 -55 32 -55 15z"/>
<path d="M7213 12143 c-16 -6 -17 -35 -1 -51 16 -16 23 -15 42 4 12 12 13 20
6 35 -11 19 -23 22 -47 12z"/>
<path d="M8380 12180 c-12 -7 -10 -9 7 -7 12 0 19 5 17 9 -6 10 -6 10 -24 -2z"/>
<path d="M5487 12099 c7 -7 15 -10 18 -7 3 3 -2 9 -12 12 -14 6 -15 5 -6 -5z"/>
<path d="M7718 12013 c7 -3 16 -2 19 1 4 3 -2 6 -13 5 -11 0 -14 -3 -6 -6z"/>
<path d="M7418 11973 c7 -3 16 -2 19 1 4 3 -2 6 -13 5 -11 0 -14 -3 -6 -6z"/>
<path d="M7278 11963 c7 -3 16 -2 19 1 4 3 -2 6 -13 5 -11 0 -14 -3 -6 -6z"/>
<path d="M7545 11129 c-139 -32 -406 -67 -685 -88 -134 -10 -552 0 -795 19
-77 6 -222 25 -323 41 -215 34 -228 35 -241 11 -20 -38 -41 -195 -50 -394 -12
-230 -7 -315 20 -370 52 -103 214 -154 624 -194 270 -26 1001 -7 1342 36 137
18 232 57 282 117 57 69 66 121 64 363 -2 237 -12 319 -48 396 -38 78 -75 90
-190 63z m-1720 -89 c253 -41 369 -51 695 -57 385 -8 723 18 950 71 136 33
193 17 210 -59 16 -68 33 -344 28 -455 -5 -117 -22 -169 -62 -196 -128 -83
-582 -136 -1181 -138 -306 0 -345 2 -530 27 -304 42 -346 59 -380 156 -28 77
-30 250 -6 473 12 108 24 204 27 212 4 11 12 12 37 5 18 -5 113 -22 212 -39z"/>
<path d="M5739 10888 c-50 -36 -59 -46 -59 -72 0 -15 6 -17 38 -13 20 3 56 11
79 18 41 12 43 12 105 -26 35 -22 91 -54 125 -71 35 -17 61 -33 59 -35 -2 -2
10 -5 28 -6 18 -1 51 -6 74 -12 37 -10 42 -16 57 -62 10 -28 22 -48 28 -46 18
6 10 102 -12 146 -11 21 -18 41 -16 43 12 11 -34 36 -87 47 -32 7 -107 37
-168 67 -136 67 -183 71 -251 22z"/>
<path d="M6890 10850 c-413 -94 -398 -89 -380 -135 6 -17 23 -42 38 -57 14
-16 21 -28 15 -28 -5 0 -28 -18 -51 -40 -37 -35 -42 -44 -43 -87 -2 -124 0
-168 8 -170 6 -2 17 31 27 73 12 55 29 95 61 145 25 39 49 68 54 65 5 -3 8 2
7 11 -1 11 13 22 39 31 22 8 94 37 160 65 l120 49 100 -10 c185 -19 275 -12
275 23 0 17 3 16 -185 50 -77 14 -147 27 -155 29 -8 1 -49 -5 -90 -14z"/>
<path d="M5747 10638 l-32 -30 34 6 c31 6 33 4 27 -17 -11 -47 53 -97 125 -97
50 0 130 60 121 92 -2 9 97 -52 104 -64 3 -4 -1 -10 -8 -12 -7 -2 -53 -16
-103 -30 -49 -14 -103 -26 -119 -26 -38 0 -113 36 -127 61 -5 10 -14 19 -20
19 -21 0 22 -57 60 -78 60 -34 125 -38 189 -13 30 12 58 18 64 15 6 -4 8 -3 5
3 -4 6 11 15 32 22 21 6 45 18 52 27 11 14 9 19 -11 35 -14 10 -30 19 -36 19
-5 0 -25 14 -43 32 -22 21 -29 34 -21 42 5 5 10 13 10 18 0 4 -61 7 -136 7
l-135 -1 -32 -30z m183 -32 c0 -19 -25 -27 -39 -13 -18 18 -13 27 14 27 15 0
25 -6 25 -14z"/>
<path d="M7088 10645 c-2 -2 -79 -5 -171 -6 -135 -2 -167 -5 -167 -17 0 -8 9
-16 20 -19 11 -3 20 -9 20 -13 0 -14 -52 -50 -71 -50 -10 0 -23 -9 -29 -19
-13 -25 11 -51 45 -51 12 0 57 -16 100 -36 102 -49 188 -57 277 -24 73 26 128
60 128 78 0 15 -16 16 -25 2 -8 -13 -79 -46 -126 -58 -20 -5 -68 -9 -106 -7
-57 1 -84 8 -144 37 -41 19 -85 34 -99 33 -14 -1 -29 0 -34 3 -12 7 15 22 40
22 11 0 31 11 44 25 12 13 27 22 33 18 6 -3 7 -1 3 5 -3 6 -2 13 4 17 5 3 10
0 10 -9 0 -29 51 -75 108 -96 43 -16 73 -21 119 -18 72 5 108 26 137 81 16 30
22 34 37 27 23 -13 35 5 18 26 -21 25 -61 41 -116 47 -28 3 -53 4 -55 2z m-15
-51 c12 -13 -6 -34 -30 -34 -13 0 -21 4 -18 10 3 6 -1 7 -9 4 -11 -4 -16 0
-16 10 0 11 9 16 33 16 19 0 36 -3 40 -6z"/>
<path d="M5905 8900 c3 -5 13 -10 21 -10 8 0 12 5 9 10 -3 6 -13 10 -21 10 -8
0 -12 -4 -9 -10z"/>
<path d="M6005 8880 c27 -12 35 -12 35 0 0 6 -12 10 -27 9 -25 0 -26 -1 -8 -9z"/>
<path d="M6120 8860 c8 -5 24 -10 35 -10 17 0 17 2 5 10 -8 5 -24 10 -35 10
-17 0 -17 -2 -5 -10z"/>
<path d="M5930 8378 c-12 -22 -12 -22 6 -6 10 10 15 20 12 24 -4 3 -12 -5 -18
-18z"/>
<path d="M5720 8349 c0 -5 5 -7 10 -4 6 3 10 8 10 11 0 2 -4 4 -10 4 -5 0 -10
-5 -10 -11z"/>
<path d="M5890 8318 c-12 -22 -12 -22 6 -6 10 10 15 20 12 24 -4 3 -12 -5 -18
-18z"/>
<path d="M5850 8261 c-6 -12 -7 -21 -1 -21 10 0 24 30 17 37 -2 3 -9 -5 -16
-16z"/>
<path d="M5656 8235 c-9 -26 -7 -32 5 -12 6 10 9 21 6 23 -2 3 -7 -2 -11 -11z"/>
<path d="M5820 8205 c-7 -9 -11 -18 -8 -20 3 -3 11 1 18 10 7 9 11 18 8 20 -3
3 -11 -1 -18 -10z"/>
<path d="M5630 8179 c0 -5 5 -7 10 -4 6 3 10 8 10 11 0 2 -4 4 -10 4 -5 0 -10
-5 -10 -11z"/>
<path d="M5780 8140 c-6 -12 -9 -24 -7 -27 3 -2 11 5 17 17 6 12 9 24 7 27 -3
2 -11 -5 -17 -17z"/>
<path d="M5610 8139 c0 -5 5 -7 10 -4 6 3 10 8 10 11 0 2 -4 4 -10 4 -5 0 -10
-5 -10 -11z"/>
<path d="M5586 8095 c-3 -8 -1 -15 4 -15 6 0 10 7 10 15 0 8 -2 15 -4 15 -2 0
-6 -7 -10 -15z"/>
<path d="M5750 8079 c-13 -24 -4 -41 10 -19 10 16 13 40 5 40 -2 0 -9 -9 -15
-21z"/>
<path d="M5565 8050 c-3 -5 -1 -10 4 -10 6 0 11 5 11 10 0 6 -2 10 -4 10 -3 0
-8 -4 -11 -10z"/>
<path d="M5720 8011 c-6 -12 -7 -21 -1 -21 10 0 24 30 17 37 -2 3 -9 -5 -16
-16z"/>
<path d="M5686 7934 c-9 -22 3 -32 14 -14 12 19 12 30 1 30 -5 0 -12 -7 -15
-16z"/>
<path d="M5657 7863 c-4 -3 -7 -13 -7 -21 0 -12 3 -12 15 -2 8 7 15 16 15 21
0 11 -14 12 -23 2z"/>
<path d="M5446 7795 c-3 -8 -1 -15 3 -15 5 0 11 7 15 15 3 8 1 15 -3 15 -5 0
-11 -7 -15 -15z"/>
<path d="M5626 7784 c-9 -22 3 -32 14 -14 12 19 12 30 1 30 -5 0 -12 -7 -15
-16z"/>
<path d="M5425 7730 c-4 -12 -5 -24 -2 -27 3 -2 8 5 12 17 4 12 5 24 2 27 -3
2 -8 -5 -12 -17z"/>
<path d="M5607 7723 c-10 -10 -8 -45 2 -39 11 7 21 46 12 46 -4 0 -11 -3 -14
-7z"/>
<path d="M5404 7664 c-4 -10 -9 -22 -11 -26 -2 -5 0 -8 6 -8 11 0 26 39 17 47
-3 3 -9 -3 -12 -13z"/>
<path d="M5376 7584 c-8 -21 -8 -24 3 -24 5 0 11 9 14 20 6 24 -8 27 -17 4z"/>
<path d="M5545 7559 c-6 -19 0 -38 9 -28 10 12 16 49 7 49 -5 0 -13 -9 -16
-21z"/>
<path d="M5346 7504 c-4 -14 -5 -29 -2 -31 3 -3 8 7 12 21 3 15 4 29 1 32 -2
3 -8 -7 -11 -22z"/>
<path d="M5516 7484 c-8 -21 -8 -24 3 -24 5 0 11 9 14 20 6 24 -8 27 -17 4z"/>
<path d="M5490 7431 c0 -5 -3 -18 -6 -28 -5 -16 -4 -16 10 1 18 23 20 36 6 36
-5 0 -10 -4 -10 -9z"/>
<path d="M5316 7404 c-4 -9 -4 -19 -1 -22 2 -3 7 3 11 12 4 9 4 19 1 22 -2 3
-7 -3 -11 -12z"/>
<path d="M5468 7364 c-5 -4 -8 -16 -8 -28 0 -14 3 -17 11 -9 6 6 9 19 7 28 -1
9 -6 13 -10 9z"/>
<path d="M5436 7267 c-8 -31 -7 -39 3 -33 12 8 21 45 11 51 -4 3 -10 -5 -14
-18z"/>
<path d="M5406 7184 c-9 -23 -7 -36 3 -30 12 8 21 46 11 46 -4 0 -11 -7 -14
-16z"/>
<path d="M5385 7109 c-4 -11 -4 -23 0 -27 7 -7 25 17 25 36 0 20 -18 14 -25
-9z"/>
<path d="M5367 7037 c-11 -29 -9 -53 4 -40 6 6 9 21 7 34 -3 21 -4 22 -11 6z"/>
<path d="M5347 6957 c-4 -10 -7 -28 -7 -40 1 -20 2 -20 11 -4 6 10 9 28 7 40
-3 20 -4 20 -11 4z"/>
<path d="M5307 6793 c-11 -20 -17 -63 -8 -63 10 0 26 58 18 66 -3 3 -7 2 -10
-3z"/>
<path d="M5236 6508 c-11 -37 -13 -59 -6 -63 5 -3 11 3 13 12 3 10 8 28 12 41
4 13 2 22 -5 22 -6 0 -12 -6 -14 -12z"/>
<path d="M5177 6203 c-12 -20 -18 -73 -8 -73 5 0 13 16 17 35 6 34 1 55 -9 38z"/>
<path d="M5159 6095 c-13 -22 -19 -65 -9 -65 6 0 13 6 16 14 7 19 1 64 -7 51z"/>
<path d="M5130 5965 c0 -19 5 -35 10 -35 6 0 10 16 10 35 0 19 -4 35 -10 35
-5 0 -10 -16 -10 -35z"/>
<path d="M6451 6801 c-9 -6 -24 -106 -52 -347 -21 -187 -39 -348 -39 -359 0
-13 -44 24 -149 128 -108 107 -153 146 -165 141 -9 -3 -16 -15 -16 -25 0 -11
40 -95 90 -187 49 -91 88 -167 86 -169 -1 -2 -119 -10 -261 -18 -142 -9 -262
-18 -267 -21 -19 -12 -5 -33 35 -51 23 -11 151 -56 284 -99 154 -50 241 -83
238 -91 -2 -6 -67 -100 -144 -208 -78 -108 -141 -205 -141 -215 0 -10 6 -20
14 -23 8 -3 91 46 190 113 97 65 178 114 182 109 3 -5 23 -125 45 -267 21
-141 41 -263 44 -269 5 -15 41 -18 49 -5 3 5 19 123 36 263 35 289 37 302 50
297 5 -2 93 -75 195 -163 102 -88 194 -160 203 -160 9 0 18 8 20 17 2 9 -56
119 -127 244 -72 125 -131 230 -131 233 0 4 44 8 98 9 298 6 442 15 454 29 8
10 9 20 2 30 -5 8 -126 53 -269 99 -143 46 -265 86 -272 88 -8 3 19 70 79 193
145 300 128 322 -89 114 -81 -77 -149 -139 -151 -136 -3 3 -22 159 -43 347
-38 340 -47 378 -78 359z"/>
<path d="M8540 5655 c-28 -30 -32 -30 -87 -4 -41 20 -45 20 -68 5 -30 -20 -32
-50 -5 -93 11 -18 21 -33 22 -33 2 0 61 -11 133 -25 71 -14 130 -25 132 -25 2
0 3 9 3 21 0 35 -19 59 -48 60 -15 0 -35 4 -45 8 -16 6 -16 9 8 31 27 26 32
49 13 68 -18 18 -32 15 -58 -13z m-79 -71 c12 -14 11 -16 -5 -13 -11 2 -21 10
-24 17 -5 17 13 15 29 -4z"/>
<path d="M8385 5498 c-14 -39 -25 -112 -18 -119 4 -4 64 -33 133 -64 69 -31
129 -61 135 -66 17 -17 23 -9 34 41 18 85 15 104 -19 117 -29 11 -31 10 -37
-18 -3 -16 -9 -29 -12 -29 -13 0 -31 24 -31 42 0 18 -28 38 -54 38 -9 0 -16
-9 -16 -20 0 -11 -4 -20 -8 -20 -18 0 -32 26 -32 57 0 27 -5 35 -26 43 -34 13
-44 13 -49 -2z"/>
<path d="M8311 5312 c-41 -20 -76 -64 -68 -85 3 -8 58 -58 123 -111 126 -103
129 -103 158 -42 39 82 7 187 -70 232 -48 28 -96 31 -143 6z m104 -72 c26 -10
61 -72 50 -90 -7 -11 -104 60 -104 77 -1 6 5 14 12 16 6 3 13 6 14 6 1 1 13
-3 28 -9z"/>
<path d="M8163 5168 c-18 -13 -33 -26 -33 -29 0 -3 27 -32 60 -63 33 -32 60
-59 60 -60 0 -2 -44 13 -97 34 -98 37 -98 37 -128 19 -16 -10 -30 -23 -30 -29
0 -13 205 -238 219 -239 4 -1 21 10 37 23 l29 24 -65 60 c-36 33 -65 61 -65
64 0 2 47 -12 103 -31 l104 -35 31 24 c17 14 31 29 31 34 1 9 -210 226 -219
226 -3 0 -20 -10 -37 -22z"/>
<path d="M7808 4965 c-16 -9 -28 -21 -28 -28 0 -26 139 -342 152 -345 7 -1 26
9 43 22 26 21 28 26 18 49 -11 23 -9 27 29 53 39 28 41 28 70 11 29 -16 30
-16 64 10 28 21 33 29 22 38 -22 20 -310 197 -327 201 -9 2 -28 -3 -43 -11z
m136 -148 c24 -20 26 -24 13 -35 -12 -10 -18 -7 -36 23 -24 41 -17 44 23 12z"/>
<path d="M7585 4866 c-43 -13 -46 -22 -30 -80 l8 -30 -44 36 c-44 36 -44 36
-96 25 -29 -6 -53 -14 -53 -18 0 -5 212 -327 236 -357 4 -6 73 19 79 28 2 4
-18 41 -45 81 -27 40 -48 75 -45 77 2 2 25 -7 51 -22 25 -14 50 -26 55 -26 4
0 2 21 -6 47 -8 26 -13 48 -11 50 2 2 31 -31 66 -72 34 -41 66 -75 69 -75 3 0
21 9 39 20 l32 20 -122 149 c-68 82 -127 151 -133 154 -5 2 -28 -1 -50 -7z"/>
<path d="M7232 4773 c-20 -4 -22 -9 -17 -41 18 -107 21 -103 -33 -43 -47 51
-51 53 -85 47 -20 -4 -39 -11 -42 -15 -3 -5 14 -49 36 -98 23 -48 63 -135 89
-193 26 -58 54 -106 62 -108 25 -5 68 17 68 34 0 9 -14 41 -31 70 -17 30 -27
54 -23 54 4 0 31 -22 60 -50 49 -46 74 -61 74 -42 0 4 -7 34 -15 67 -20 83
-19 85 17 34 17 -24 42 -58 54 -75 l23 -32 46 17 c30 10 43 20 40 29 -3 8 -62
90 -131 183 -131 175 -129 174 -192 162z"/>
<path d="M6851 4691 c-34 -34 -46 -94 -34 -166 34 -200 196 -350 276 -256 34
41 40 87 23 170 -38 181 -191 326 -265 252z m111 -138 c22 -26 40 -63 49 -101
16 -72 -18 -84 -55 -19 -48 83 -44 177 6 120z"/>
<path d="M5502 4667 c-16 -19 -142 -280 -142 -294 0 -6 15 -20 33 -32 l32 -20
21 42 22 42 61 -3 c51 -3 68 0 104 21 80 47 116 160 68 211 -37 40 -175 62
-199 33z m99 -97 c42 -23 5 -84 -47 -78 -35 4 -38 16 -14 56 21 34 30 38 61
22z"/>
<path d="M6605 4617 c-42 -42 -59 -103 -50 -176 19 -161 148 -294 254 -263 21
7 46 21 55 31 16 17 16 25 6 58 -7 21 -19 48 -26 60 l-14 23 -30 -33 c-28 -31
-30 -31 -57 -17 -67 37 -97 167 -52 224 22 28 48 33 67 14 15 -15 16 12 2 63
-11 39 -28 49 -88 49 -25 0 -43 -9 -67 -33z"/>
<path d="M5744 4514 c-25 -55 -66 -141 -91 -192 -25 -51 -44 -94 -42 -96 8 -6
73 -26 85 -26 8 0 20 13 28 28 14 28 17 29 63 21 26 -4 53 -8 59 -8 6 -1 15
-20 20 -43 9 -42 10 -43 52 -46 23 -2 42 0 42 5 0 4 -9 55 -20 113 -11 58 -29
154 -40 214 -11 60 -21 111 -24 113 -2 3 -23 7 -45 10 l-41 6 -46 -99z m84
-116 c5 -29 8 -56 6 -60 -3 -4 -17 -2 -33 3 -31 11 -31 5 -5 97 8 27 22 9 32
-40z"/>
<path d="M6350 4584 c-8 -1 -37 -6 -64 -9 l-48 -7 5 -76 c13 -186 30 -347 36
-353 6 -6 165 7 186 15 6 2 8 27 6 56 l-3 52 -52 -4 -51 -3 -3 42 c-3 39 -1
42 28 48 29 6 31 9 28 48 -3 42 -3 42 -40 39 -32 -2 -38 0 -39 18 -1 11 -2 26
-3 32 -1 7 18 16 43 20 24 4 46 10 49 12 2 3 1 21 -2 41 -6 30 -11 35 -34 34
-15 -1 -34 -3 -42 -5z"/>
<path d="M6049 4564 c-111 -69 -119 -292 -15 -393 46 -44 117 -54 157 -22 24
18 26 26 21 68 -2 27 -6 49 -7 50 -1 2 -20 -5 -43 -13 -82 -33 -129 16 -113
116 11 71 34 92 93 88 l48 -3 0 47 c0 37 -5 50 -22 62 -29 20 -86 20 -119 0z"/>
<path d="M9247 2553 c-11 -10 -8 -63 3 -63 14 0 32 39 26 56 -6 15 -18 18 -29
7z"/>
<path d="M9240 2420 c0 -34 7 -38 26 -12 19 25 17 42 -6 42 -16 0 -20 -7 -20
-30z"/>
<path d="M9002 2407 c-49 -52 -78 -169 -102 -406 -11 -110 -12 -596 -1 -645 3
-17 6 103 6 265 0 320 10 427 51 543 26 76 48 106 75 106 42 0 54 -55 95 -430
14 -129 29 -252 34 -273 15 -69 4 -84 -119 -162 -105 -67 -130 -88 -131 -107
0 -5 10 -8 21 -8 22 0 194 104 207 125 4 6 19 20 35 30 l27 17 0 218 c0 250
-11 381 -45 531 -26 117 -53 179 -87 203 -30 21 -41 20 -66 -7z"/>
<path d="M9247 2343 c-10 -9 -8 -61 2 -67 11 -7 35 49 26 63 -7 12 -19 14 -28
4z"/>
<path d="M8514 2255 c-3 -14 -4 -31 -1 -39 7 -16 104 -29 182 -24 l50 3 0 40
0 40 -112 3 -112 3 -7 -26z m116 -15 c0 -13 -7 -20 -20 -20 -13 0 -20 7 -20
20 0 13 7 20 20 20 13 0 20 -7 20 -20z"/>
<path d="M8583 1241 c-30 -19 -43 -94 -23 -132 28 -50 160 11 160 74 0 31 -38
59 -83 62 -25 1 -49 0 -54 -4z m8 -77 c-7 -31 -9 -34 -10 -12 -1 27 9 62 15
55 3 -2 0 -22 -5 -43z"/>
</g>
</svg>
